# xmcd CD database file
#
# Track frame offsets:
#	150
#	13400
#	28515
#	44212
#	55447
#	72845
#	87177
#	102595
#	121367
#	136557
#	153305
#	169909
#
# Disc length: 2474 seconds
#
# Revision: 6
# Processed by: cddbd v1.5.2PL0 Copyright (c) Steve Scherf et al.
# Submitted via: CDex 1.79
#
DISCID=a609a80c
DTITLE=Emilio - Life Is Good
DYEAR=1995
DGENRE=Country
TTITLE0=Even If I Tried
TTITLE1=I Think We're On To Something
TTITLE2=It's Not The End Of The World
TTITLE3=Long As I Got You
TTITLE4=Any Little Lie
TTITLE5=Life Is Good
TTITLE6=Honky Tonk Habits
TTITLE7=There'll Be No More Crying
TTITLE8=I Was There
TTITLE9=Have I Told You Lately
TTITLE10=Hace Cuanto He Dicho Que Te Amo (Have I Told You Lately)
TTITLE11=No Es El Fin Del Mundo (It's Not the End of the World)
EXTD=YEAR: 1995
EXTT0=
EXTT1=
EXTT2=
EXTT3=
EXTT4=
EXTT5=
EXTT6=
EXTT7=
EXTT8=
EXTT9=
EXTT10=
EXTT11=
PLAYORDER=
